<svg width="80" height="80" viewBox="0 0 80 80" fill="none" xmlns="http://www.w3.org/2000/svg">
<path d="M33.5168 18.7421C27.195 -2.36789 13.9557 4.00605 26.8451 21.9588C5.90637 7.88552 0.0611076 15.2126 18.8404 31.9888C-1.93447 23.9246 -5.20335 38.2585 17.1948 39.2116C-7.19148 46.9631 -5.0991 56.107 20.0467 51.7212C0.463203 63.0916 9.62946 74.581 24.6633 57.5144C15.1992 81.5656 23.6432 85.6386 36.2198 63.0841C32.5712 85.6386 47.27 85.6386 43.6288 63.0841C56.2054 85.6386 64.6568 81.573 55.1852 57.5144C70.2191 74.5885 79.3854 63.0916 59.8019 51.7212C84.9551 56.107 87.04 46.9631 62.6538 39.2116C85.0519 38.2585 81.7756 23.9246 61.0082 31.9888C79.7949 15.2126 73.9496 7.88552 53.011 21.9588C65.9003 4.0135 52.661 -2.36789 46.3392 18.7421C44.6117 -6.24735 35.2369 -6.24735 33.5094 18.7421H33.5168Z" fill="#FF9776"/>
</svg>
