<svg width="70" height="80" viewBox="0 0 70 80" fill="none" xmlns="http://www.w3.org/2000/svg">
<path fill-rule="evenodd" clip-rule="evenodd" d="M10.9414 75.5056C12.5685 77.2816 14.1114 78 15.5 78C16.8886 78 18.4315 77.2816 20.0586 75.5056C21.4191 74.0205 22.7307 71.9035 23.9128 69.2153C20.8895 61.9158 19 51.5273 19 40C19 28.4727 20.8895 18.0842 23.9128 10.7847C22.7307 8.09645 21.4191 5.97946 20.0586 4.49444C18.4315 2.71841 16.8886 2 15.5 2C14.1114 2 12.5685 2.71841 10.9414 4.49443C9.31304 6.2718 7.75474 8.95447 6.40473 12.4384C3.70971 19.3932 2 29.1371 2 40C2 50.8629 3.70971 60.6068 6.40473 67.5616C7.75473 71.0455 9.31304 73.7282 10.9414 75.5056ZM15.5 80C19.0797 80 22.3761 76.8683 25 71.6087C27.6239 76.8683 30.9202 80 34.5 80C38.311 80 41.8008 76.4506 44.5 70.563C47.1992 76.4506 50.689 80 54.5 80C63.0604 80 70 62.0914 70 40C70 17.9086 63.0604 0 54.5 0C50.689 0 47.1992 3.54936 44.5 9.43702C41.8008 3.54936 38.311 0 34.5 0C30.9203 0 27.6239 3.13168 25 8.39132C22.3761 3.13168 19.0797 0 15.5 0C6.93959 0 0 17.9086 0 40C-2.7141e-06 62.0914 6.93958 80 15.5 80ZM43.4268 12.0105C42.1163 8.73425 40.6196 6.19834 39.0586 4.49444C37.4315 2.71841 35.8886 2 34.5 2C33.1114 2 31.5685 2.71841 29.9414 4.49443C28.5809 5.97946 27.2693 8.09645 26.0872 10.7847C29.1105 18.0842 31 28.4727 31 40C31 51.5273 29.1105 61.9158 26.0872 69.2153C27.2693 71.9035 28.5809 74.0205 29.9414 75.5056C31.5685 77.2816 33.1114 78 34.5 78C35.8886 78 37.4315 77.2816 39.0586 75.5056C40.6196 73.8017 42.1163 71.2658 43.4268 67.9895C40.6884 60.7754 39 50.8965 39 40C39 29.1035 40.6884 19.2246 43.4268 12.0105ZM44.5 65.0074C42.3329 58.3103 41 49.5913 41 40C41 30.4086 42.3329 21.6897 44.5 14.9926C46.6671 21.6897 48 30.4086 48 40C48 49.5913 46.6671 58.3103 44.5 65.0074ZM45.5732 67.9895C48.3116 60.7754 50 50.8965 50 40C50 29.1035 48.3116 19.2246 45.5732 12.0105C46.8837 8.73424 48.3803 6.19834 49.9414 4.49443C51.5685 2.71841 53.1114 2 54.5 2C55.8886 2 57.4315 2.71841 59.0586 4.49444C60.687 6.2718 62.2453 8.95448 63.5953 12.4384C66.2903 19.3932 68 29.1371 68 40C68 50.8629 66.2903 60.6068 63.5953 67.5616C62.2453 71.0455 60.687 73.7282 59.0586 75.5056C57.4315 77.2816 55.8886 78 54.5 78C53.1114 78 51.5685 77.2816 49.9414 75.5056C48.3803 73.8017 46.8837 71.2657 45.5732 67.9895ZM29 40C29 29.6914 27.4603 20.3905 25 13.5245C22.5397 20.3905 21 29.6914 21 40C21 50.3086 22.5397 59.6095 25 66.4755C27.4603 59.6095 29 50.3086 29 40Z" fill="#FF6135"/>
</svg>
