<svg width="13" height="13" viewBox="0 0 13 13" fill="none" xmlns="http://www.w3.org/2000/svg">
<g clip-path="url(#clip0_185_99)">
<path d="M12.1981 2.56447C12.6711 2.09773 12.6711 1.33974 12.1981 0.873004C11.7252 0.406264 10.9571 0.406264 10.4841 0.873004L6.49987 4.80855L2.51185 0.876738C2.03889 0.409998 1.2708 0.409998 0.797837 0.876738C0.324875 1.34348 0.324875 2.10146 0.797837 2.5682L4.78586 6.50001L0.801621 10.4356C0.328658 10.9023 0.328658 11.6603 0.801621 12.127C1.27458 12.5938 2.04267 12.5938 2.51564 12.127L6.49987 8.19148L10.4879 12.1233C10.9609 12.59 11.729 12.59 12.2019 12.1233C12.6749 11.6566 12.6749 10.8986 12.2019 10.4318L8.21389 6.50001L12.1981 2.56447Z" fill="#A6A6A6"/>
</g>
<defs>
<clipPath id="clip0_185_99">
<rect width="13" height="13" fill="white"/>
</clipPath>
</defs>
</svg>
