<svg width="13" height="13" viewBox="0 0 13 13" fill="none" xmlns="http://www.w3.org/2000/svg">
<path d="M12.8409 11.3807C12.89 11.4213 12.9294 11.4703 12.9567 11.5247C12.984 11.5791 12.9987 11.6378 12.9999 11.6974C13.0011 11.757 12.9888 11.8161 12.9636 11.8714C12.9385 11.9266 12.901 11.9768 12.8536 12.0189C12.8061 12.061 12.7495 12.0942 12.6873 12.1165C12.625 12.1388 12.5583 12.1498 12.4912 12.1487C12.424 12.1477 12.3578 12.1347 12.2965 12.1104C12.2352 12.0862 12.18 12.0512 12.1342 12.0076L6.48753 6.99876L0.840861 12.0076C0.746078 12.086 0.620714 12.1286 0.491179 12.1266C0.361645 12.1246 0.238055 12.078 0.146447 11.9968C0.0548379 11.9155 0.00236338 11.8058 7.78982e-05 11.6909C-0.00220758 11.576 0.0458744 11.4648 0.134194 11.3807L5.78003 6.37108L0.134194 1.36147C0.0458744 1.27738 -0.00220758 1.16616 7.78982e-05 1.05124C0.00236338 0.936323 0.0548379 0.826676 0.146447 0.745403C0.238055 0.66413 0.361645 0.617575 0.491179 0.615548C0.620714 0.61352 0.746078 0.656177 0.840861 0.734533L6.48753 5.7434L12.1342 0.734533C12.229 0.656177 12.3543 0.61352 12.4839 0.615548C12.6134 0.617575 12.737 0.66413 12.8286 0.745403C12.9202 0.826676 12.9727 0.936323 12.975 1.05124C12.9773 1.16616 12.9292 1.27738 12.8409 1.36147L7.19503 6.37108L12.8409 11.3807Z" fill="black"/>
</svg>
