<svg width="19" height="17" viewBox="0 0 19 17" fill="none" xmlns="http://www.w3.org/2000/svg">
<path d="M14.5776 16.4779C14.3291 16.4777 14.0843 16.4203 13.8646 16.3107L10.1301 14.4594C10.0572 14.4234 9.97611 14.4046 9.89379 14.4046C9.81147 14.4046 9.73038 14.4234 9.65746 14.4594L5.91895 16.3107C5.66658 16.436 5.38209 16.4921 5.09765 16.4728C4.81321 16.4535 4.54017 16.3595 4.30942 16.2015C4.07868 16.0435 3.89943 15.8277 3.79196 15.5786C3.68449 15.3294 3.65309 15.0569 3.7013 14.7918L4.41437 10.8703C4.42834 10.7937 4.42237 10.715 4.397 10.641C4.37163 10.5671 4.3276 10.5 4.2687 10.4456L1.24937 7.66825C1.04505 7.48054 0.900523 7.24264 0.832147 6.98147C0.763772 6.7203 0.774276 6.4463 0.862472 6.19047C0.950668 5.93464 1.11303 5.7072 1.33119 5.53389C1.54935 5.36058 1.81459 5.24833 2.0969 5.20982L6.27344 4.6334C6.35503 4.62218 6.4325 4.59246 6.49922 4.54677C6.56593 4.50109 6.61989 4.44082 6.65646 4.37113L8.52368 0.803088C8.64989 0.562017 8.84508 0.359049 9.0872 0.21713C9.32933 0.0752108 9.60872 0 9.89379 0C10.1789 0 10.4583 0.0752108 10.7004 0.21713C10.9425 0.359049 11.1377 0.562017 11.2639 0.803088L13.1311 4.37113C13.1676 4.441 13.2215 4.50146 13.2882 4.54732C13.3549 4.59318 13.4325 4.62305 13.5141 4.63436L17.6907 5.21078C17.973 5.24929 18.2382 5.36154 18.4564 5.53485C18.6746 5.70816 18.8369 5.9356 18.9251 6.19143C19.0133 6.44726 19.0238 6.72126 18.9554 6.98243C18.8871 7.2436 18.7425 7.4815 18.5382 7.66921L15.5179 10.4466C15.4588 10.5009 15.4146 10.5679 15.389 10.6419C15.3635 10.7158 15.3573 10.7945 15.3712 10.8712L16.0842 14.7928C16.1219 14.9997 16.1112 15.2119 16.0529 15.4145C15.9945 15.6171 15.89 15.8053 15.7465 15.9658C15.6029 16.1263 15.424 16.2553 15.2221 16.3437C15.0202 16.4322 14.8003 16.478 14.5776 16.4779ZM10.6048 13.6092L14.3372 15.4567C14.4213 15.4982 14.5161 15.5168 14.6108 15.5103C14.7055 15.5038 14.7964 15.4724 14.8732 15.4198C14.95 15.3671 15.0096 15.2952 15.0454 15.2123C15.0812 15.1294 15.0917 15.0386 15.0758 14.9504L14.3627 11.0288C14.3208 10.7984 14.339 10.5619 14.4157 10.3396C14.4924 10.1174 14.6252 9.91603 14.8028 9.75298L17.8231 6.97655C17.8912 6.914 17.9394 6.83472 17.9622 6.74769C17.985 6.66066 17.9815 6.56934 17.9522 6.48408C17.9228 6.39881 17.8687 6.32299 17.7961 6.2652C17.7234 6.20741 17.635 6.16996 17.5409 6.15707L13.3644 5.58065C13.1191 5.5471 12.8861 5.45776 12.6856 5.32035C12.485 5.18294 12.3229 5.00158 12.2133 4.79192L10.3491 1.23252C10.3035 1.15574 10.2369 1.09181 10.1563 1.04732C10.0758 1.00283 9.9841 0.979377 9.89074 0.979377C9.79737 0.979377 9.7057 1.00283 9.62513 1.04732C9.54457 1.09181 9.47802 1.15574 9.43233 1.23252L7.56817 4.80056C7.4584 5.01005 7.29626 5.19122 7.09573 5.32845C6.8952 5.46569 6.66229 5.55488 6.41707 5.58834L2.24053 6.16476C2.14646 6.17764 2.05808 6.2151 1.98541 6.27289C1.91273 6.33068 1.85866 6.40649 1.8293 6.49176C1.79994 6.57703 1.79646 6.66834 1.81927 6.75538C1.84208 6.84241 1.89026 6.92169 1.95836 6.98424L4.98177 9.75778C5.15977 9.92132 5.2928 10.1233 5.3693 10.3463C5.44581 10.5693 5.46349 10.8065 5.42082 11.0374L4.70775 14.959C4.69163 15.0474 4.70208 15.1383 4.73792 15.2214C4.77375 15.3045 4.83354 15.3764 4.91051 15.4291C4.98748 15.4818 5.07856 15.5132 5.17343 15.5195C5.2683 15.5259 5.36317 15.5071 5.4473 15.4653L9.17869 13.6092C9.39848 13.4999 9.64324 13.4427 9.89176 13.4427C10.1403 13.4427 10.385 13.4999 10.6048 13.6092Z" fill="#999999"/>
</svg>
