<svg width="19" height="17" viewBox="0 0 19 17" fill="none" xmlns="http://www.w3.org/2000/svg">
<path d="M17.7526 7.61265L14.2627 10.6584L15.3081 15.193C15.3634 15.43 15.3476 15.6781 15.2627 15.9062C15.1778 16.1344 15.0275 16.3324 14.8307 16.4756C14.6338 16.6188 14.3991 16.7008 14.1559 16.7113C13.9127 16.7218 13.6718 16.6604 13.4633 16.5348L9.50836 14.1359L5.56189 16.5348C5.3534 16.6604 5.1125 16.7218 4.86931 16.7113C4.62611 16.7008 4.39141 16.6188 4.19455 16.4756C3.9977 16.3324 3.84741 16.1344 3.7625 15.9062C3.67758 15.6781 3.66179 15.43 3.71711 15.193L4.76099 10.663L1.27031 7.61265C1.08568 7.45342 0.952176 7.24322 0.886536 7.00842C0.820896 6.77361 0.826042 6.52465 0.901328 6.29276C0.976615 6.06087 1.11869 5.85637 1.30974 5.7049C1.50079 5.55343 1.7323 5.46174 1.97525 5.44132L6.57637 5.04281L8.37239 0.75896C8.46619 0.534178 8.62439 0.342172 8.82708 0.207118C9.02977 0.0720641 9.26789 0 9.51145 0C9.75502 0 9.99314 0.0720641 10.1958 0.207118C10.3985 0.342172 10.5567 0.534178 10.6505 0.75896L12.452 5.04281L17.0515 5.44132C17.2945 5.46174 17.526 5.55343 17.717 5.7049C17.9081 5.85637 18.0502 6.06087 18.1254 6.29276C18.2007 6.52465 18.2059 6.77361 18.1402 7.00842C18.0746 7.24322 17.9411 7.45342 17.7565 7.61265H17.7526Z" fill="black"/>
</svg>
