<svg width="11" height="10" viewBox="0 0 11 10" fill="none" xmlns="http://www.w3.org/2000/svg">
<path d="M10.1193 4.55508L8.03106 6.37752L8.6566 9.09081C8.6897 9.23265 8.68026 9.3811 8.62944 9.51761C8.57863 9.65411 8.48871 9.77261 8.37092 9.85828C8.25313 9.94396 8.1127 9.99301 7.96718 9.99931C7.82166 10.0056 7.67752 9.96886 7.55276 9.89368L5.18628 8.45832L2.82488 9.89368C2.70013 9.96886 2.55599 10.0056 2.41047 9.99931C2.26495 9.99301 2.12452 9.94396 2.00673 9.85828C1.88894 9.77261 1.79902 9.65411 1.7482 9.51761C1.69739 9.3811 1.68795 9.23265 1.72105 9.09081L2.34566 6.3803L0.256985 4.55508C0.146513 4.4598 0.0666304 4.33403 0.0273543 4.19353C-0.0119218 4.05304 -0.00884277 3.90407 0.0362053 3.76532C0.0812534 3.62656 0.166265 3.5042 0.28058 3.41356C0.394895 3.32293 0.533424 3.26807 0.678795 3.25585L3.4319 3.0174L4.50657 0.454129C4.56269 0.319629 4.65735 0.204741 4.77863 0.123931C4.89991 0.04312 5.04239 0 5.18813 0C5.33387 0 5.47635 0.04312 5.59763 0.123931C5.71891 0.204741 5.81357 0.319629 5.86969 0.454129L6.9476 3.0174L9.69978 3.25585C9.84515 3.26807 9.98368 3.32293 10.098 3.41356C10.2123 3.5042 10.2973 3.62656 10.3424 3.76532C10.3874 3.90407 10.3905 4.05304 10.3512 4.19353C10.3119 4.33403 10.2321 4.4598 10.1216 4.55508H10.1193Z" fill="black"/>
</svg>
