<svg width="40" height="40" viewBox="0 0 40 40" fill="none" xmlns="http://www.w3.org/2000/svg">
<circle cx="20" cy="20" r="19.5" stroke="#D9D9D9"/>
<path d="M18.3747 14.3564C17.0605 14.8123 15.9272 15.6776 15.1412 16.8253C14.3551 17.9729 13.9578 19.3423 14.0076 20.7325C14.0574 22.1226 14.5516 23.4601 15.4178 24.5486C16.2839 25.637 17.4762 26.419 18.8197 26.7798C19.9088 27.0608 21.0499 27.0731 22.1449 26.8157C23.1368 26.5929 24.0539 26.1163 24.8063 25.4326C25.5894 24.6993 26.1578 23.7664 26.4504 22.7342C26.7684 21.6117 26.8249 20.4314 26.6158 19.2836H20.4997V21.8207H24.0418C23.971 22.2253 23.8193 22.6115 23.5958 22.9562C23.3722 23.3008 23.0815 23.5969 22.7409 23.8265C22.3084 24.1127 21.8208 24.3052 21.3095 24.3917C20.7967 24.4871 20.2706 24.4871 19.7578 24.3917C19.238 24.2843 18.7463 24.0698 18.3141 23.7618C17.6196 23.2702 17.0981 22.5718 16.8241 21.7662C16.5455 20.9456 16.5455 20.056 16.8241 19.2353C17.0192 18.6601 17.3416 18.1364 17.7674 17.7032C18.2547 17.1984 18.8716 16.8376 19.5504 16.6603C20.2293 16.483 20.9438 16.4962 21.6157 16.6983C22.1406 16.8593 22.6205 17.1408 23.0173 17.5203C23.4167 17.123 23.8154 16.7246 24.2134 16.3252C24.4189 16.1105 24.6429 15.906 24.8453 15.6861C24.2396 15.1225 23.5287 14.6839 22.7532 14.3955C21.341 13.8827 19.7958 13.8689 18.3747 14.3564Z" fill="white"/>
<path d="M18.3744 14.3563C19.7954 13.8685 21.3406 13.8819 22.7529 14.3944C23.5285 14.6848 24.2391 15.1255 24.844 15.6912C24.6385 15.9111 24.4217 16.1166 24.212 16.3303C23.8134 16.7283 23.415 17.125 23.017 17.5202C22.6202 17.1407 22.1403 16.8592 21.6154 16.6982C20.9437 16.4954 20.2292 16.4815 19.5502 16.658C18.8712 16.8346 18.2539 17.1948 17.7661 17.699C17.3403 18.1322 17.0178 18.6559 16.8228 19.2311L14.6926 17.5819C15.4551 16.0699 16.7753 14.9133 18.3744 14.3563Z" fill="#E33629"/>
<path d="M14.1274 19.2157C14.2418 18.6483 14.4319 18.0987 14.6926 17.5819L16.8227 19.2352C16.5442 20.0559 16.5442 20.9455 16.8227 21.7661C16.113 22.3142 15.403 22.865 14.6926 23.4185C14.0402 22.12 13.8413 20.6404 14.1274 19.2157Z" fill="#F8BD00"/>
<path d="M20.4994 19.2825H26.6155C26.8246 20.4302 26.768 21.6106 26.45 22.7331C26.1574 23.7653 25.589 24.6982 24.8059 25.4315C24.1185 24.8951 23.4279 24.3628 22.7405 23.8264C23.0813 23.5965 23.3722 23.3002 23.5957 22.9552C23.8193 22.6102 23.9709 22.2236 24.0414 21.8185H20.4994C20.4983 20.9739 20.4994 20.1282 20.4994 19.2825Z" fill="#587DBD"/>
<path d="M14.6915 23.4185C15.4019 22.8704 16.112 22.3197 16.8217 21.7661C17.0963 22.572 17.6185 23.2704 18.3137 23.7617C18.7473 24.0683 19.2401 24.2811 19.7605 24.3865C20.2734 24.4818 20.7994 24.4818 21.3122 24.3865C21.8235 24.3 22.3111 24.1075 22.7436 23.8213C23.431 24.3577 24.1216 24.89 24.809 25.4264C24.0567 26.1104 23.1396 26.5874 22.1476 26.8105C21.0526 27.0679 19.9115 27.0556 18.8224 26.7745C17.961 26.5445 17.1563 26.1391 16.459 25.5836C15.7209 24.9975 15.118 24.259 14.6915 23.4185Z" fill="#319F43"/>
</svg>
