<svg width="40" height="40" viewBox="0 0 40 40" fill="none" xmlns="http://www.w3.org/2000/svg">
<circle cx="20" cy="20" r="20" fill="#FEE500"/>
<path fill-rule="evenodd" clip-rule="evenodd" d="M19.8422 14C16.1857 14 13 16.4926 13 19.8159C13 21.8802 14.2508 23.6407 16.0544 24.6622L15.7499 26.1819C15.7234 26.3145 15.7369 26.4521 15.7885 26.5771C15.8402 26.7021 15.9277 26.809 16.0401 26.8843C16.1525 26.9596 16.2847 26.9998 16.42 27C16.5553 27.0002 16.6876 26.9602 16.8002 26.8853L18.7844 25.5633C19.1293 25.6085 19.483 25.6318 19.8422 25.6318C23.4987 25.6318 26.6844 23.1391 26.6844 19.8159C26.6844 16.4926 23.4987 14 19.8422 14Z" fill="black"/>
</svg>
