<svg width="49" height="55" viewBox="0 0 49 55" fill="none" xmlns="http://www.w3.org/2000/svg">
<path fill-rule="evenodd" clip-rule="evenodd" d="M7.98304 51.4879C9.03065 52.6314 9.93645 53 10.6562 53C11.3761 53 12.2818 52.6314 13.3295 51.4879C14.297 50.4318 15.254 48.8459 16.1122 46.7594C14.2258 41.7983 13.0625 34.9997 13.0625 27.5C13.0625 20.0003 14.2258 13.2017 16.1122 8.24057C15.254 6.15405 14.297 4.56821 13.3295 3.51212C12.2818 2.36863 11.3761 2 10.6563 2C9.93645 2 9.03065 2.36863 7.98304 3.51212C6.9342 4.65696 5.89776 6.42434 4.98603 8.7772C3.16756 13.47 2 20.0889 2 27.5C2 34.9111 3.16756 41.53 4.98603 46.2228C5.89776 48.5757 6.9342 50.343 7.98304 51.4879ZM10.6562 55C13.1173 55 15.3835 52.847 17.1875 49.231C18.9915 52.847 21.2577 55 23.7187 55C26.3388 55 28.738 52.5598 30.5937 48.5121C32.4495 52.5598 34.8487 55 37.4687 55C43.354 55 48.125 42.6878 48.125 27.5C48.125 12.3122 43.354 0 37.4687 0C34.8487 0 32.4495 2.44019 30.5937 6.48795C28.738 2.44019 26.3388 0 23.7187 0C21.2577 0 18.9915 2.15303 17.1875 5.76902C15.3835 2.15303 13.1173 0 10.6563 0C4.77097 0 6.63881e-07 12.3122 0 27.5C-6.63882e-07 42.6878 4.77096 55 10.6562 55ZM29.5311 9.15159C29.4842 9.02548 29.4368 8.90067 29.389 8.77721C28.4772 6.42434 27.4408 4.65696 26.392 3.51212C25.3443 2.36863 24.4385 2 23.7187 2C22.9989 2 22.0931 2.36863 21.0455 3.51212C20.078 4.56821 19.121 6.15405 18.2628 8.24057C20.1492 13.2017 21.3125 20.0003 21.3125 27.5C21.3125 34.9997 20.1492 41.7983 18.2628 46.7594C19.121 48.8459 20.078 50.4318 21.0455 51.4879C22.0931 52.6314 22.9989 53 23.7187 53C24.4385 53 25.3443 52.6314 26.3919 51.4879C27.4408 50.343 28.4772 48.5757 29.389 46.2228C29.4368 46.0993 29.4842 45.9745 29.5311 45.8484C27.8406 40.9813 26.8125 34.5505 26.8125 27.5C26.8125 20.4495 27.8406 14.0187 29.5311 9.15159ZM30.5937 42.4699C29.4808 38.2608 28.8125 33.1071 28.8125 27.5C28.8125 21.8929 29.4808 16.7392 30.5937 12.5301C31.7067 16.7392 32.375 21.8929 32.375 27.5C32.375 33.1071 31.7067 38.2608 30.5937 42.4699ZM31.6563 45.8484C33.3468 40.9813 34.375 34.5505 34.375 27.5C34.375 20.4495 33.3468 14.0187 31.6563 9.15159C31.7033 9.02548 31.7507 8.90067 31.7985 8.7772C32.7103 6.42434 33.7467 4.65696 34.7955 3.51212C35.8431 2.36863 36.7489 2 37.4687 2C38.1885 2 39.0943 2.36863 40.1419 3.51212C41.1908 4.65696 42.2272 6.42434 43.139 8.77721C44.9574 13.47 46.125 20.0889 46.125 27.5C46.125 34.9111 44.9574 41.53 43.139 46.2228C42.2272 48.5757 41.1908 50.343 40.1419 51.4879C39.0943 52.6314 38.1885 53 37.4687 53C36.7489 53 35.8431 52.6314 34.7955 51.4879C33.7467 50.343 32.7103 48.5757 31.7985 46.2228C31.7507 46.0993 31.7033 45.9745 31.6563 45.8484ZM19.3125 27.5C19.3125 21.3372 18.5051 15.7222 17.1875 11.3071C15.8699 15.7222 15.0625 21.3372 15.0625 27.5C15.0625 33.6628 15.8699 39.2778 17.1875 43.6929C18.5051 39.2778 19.3125 33.6628 19.3125 27.5Z" fill="#FF6135"/>
</svg>
