<svg width="14" height="15" viewBox="0 0 14 15" fill="none" xmlns="http://www.w3.org/2000/svg">
<path d="M12.9574 5.09434H10.4255V3.25472C10.4255 2.39151 10.0646 1.56366 9.42222 0.953284C8.77981 0.342907 7.90851 0 7 0C6.09149 0 5.2202 0.342907 4.57778 0.953284C3.93537 1.56366 3.57447 2.39151 3.57447 3.25472V5.09434H1.04255C0.766051 5.09434 0.500873 5.1987 0.305357 5.38447C0.10984 5.57024 0 5.82219 0 6.08491V14.0094C0 14.2721 0.10984 14.5241 0.305357 14.7099C0.500873 14.8956 0.766051 15 1.04255 15H12.9574C13.2339 15 13.4991 14.8956 13.6946 14.7099C13.8902 14.5241 14 14.2721 14 14.0094V6.08491C14 5.82219 13.8902 5.57024 13.6946 5.38447C13.4991 5.1987 13.2339 5.09434 12.9574 5.09434ZM4.46808 3.25472C4.46808 2.6167 4.73484 2.00481 5.20967 1.55366C5.68449 1.10251 6.32849 0.849057 7 0.849057C7.67151 0.849057 8.31551 1.10251 8.79033 1.55366C9.26516 2.00481 9.53191 2.6167 9.53191 3.25472V5.09434H4.46808V3.25472ZM13.1064 14.0094C13.1064 14.047 13.0907 14.083 13.0628 14.1095C13.0348 14.136 12.9969 14.1509 12.9574 14.1509H1.04255C1.00305 14.1509 0.96517 14.136 0.937239 14.1095C0.909308 14.083 0.893617 14.047 0.893617 14.0094V6.08491C0.893617 6.04737 0.909308 6.01138 0.937239 5.98484C0.96517 5.9583 1.00305 5.9434 1.04255 5.9434H12.9574C12.9969 5.9434 13.0348 5.9583 13.0628 5.98484C13.0907 6.01138 13.1064 6.04737 13.1064 6.08491V14.0094ZM7.74468 10.0472C7.74468 10.1871 7.70101 10.3239 7.61918 10.4403C7.53735 10.5566 7.42105 10.6473 7.28498 10.7009C7.1489 10.7544 6.99917 10.7684 6.85472 10.7411C6.71027 10.7138 6.57758 10.6464 6.47343 10.5475C6.36929 10.4485 6.29836 10.3225 6.26963 10.1852C6.24089 10.048 6.25564 9.90569 6.312 9.7764C6.36837 9.64712 6.46382 9.53661 6.58628 9.45887C6.70874 9.38112 6.85272 9.33962 7 9.33962C7.1975 9.33962 7.38691 9.41417 7.52657 9.54686C7.66622 9.67955 7.74468 9.85952 7.74468 10.0472Z" fill="#999999"/>
</svg>
