<svg width="84" height="83" viewBox="0 0 84 83" fill="none" xmlns="http://www.w3.org/2000/svg">
<path d="M0 0H74C79.5228 0 84 4.47715 84 10V73C84 78.5229 79.5229 83 74 83H0V0Z" fill="black" fill-opacity="0.3"/>
<path d="M24.2812 44.4258V42.1523H22.0195V41.2031H24.2812V38.9414H25.2305V41.2031H27.5039V42.1523H25.2305V44.4258H24.2812ZM36.6656 36.5273V37.3008H32.8102V42.6094C34.6852 42.6094 35.9273 42.5449 37.3687 42.2695L37.4859 43.0312C35.9508 43.3242 34.6852 43.3945 32.6812 43.3945H31.8844V36.5273H36.6656ZM40.0055 35.5312V45.9727H39.0797V40.0898H36.0445V39.3281H39.0797V35.5312H40.0055ZM50.9672 43.8516V44.6133H41.4281V43.8516H45.7172V41.6016H42.5531V36.2695H43.4789V38.1562H48.893V36.2695H49.7953V41.6016H46.6195V43.8516H50.9672ZM43.4789 40.8516H48.893V38.9062H43.4789V40.8516ZM60.1125 35.5312V45.9492H59.1867V35.5312H60.1125ZM57.0305 36.668C57.0187 39.668 55.6242 42.3164 52.132 43.9922L51.6281 43.2422C54.4465 41.9062 55.882 39.9082 56.093 37.418H52.1086V36.668H57.0305Z" fill="white"/>
</svg>
