<svg width="22" height="22" viewBox="0 0 22 22" fill="none" xmlns="http://www.w3.org/2000/svg">
<g clip-path="url(#clip0_0_3437)">
<path d="M10.9811 7.2666C10.1555 7.2666 9.49683 7.55982 9.00527 8.14626C8.5137 8.7327 8.26758 9.61029 8.26758 10.7787C8.26758 12.1454 8.61992 13.1244 9.32358 13.7154C9.77939 14.0986 10.326 14.2904 10.9619 14.2904C11.195 14.2913 11.4273 14.2617 11.6528 14.2024C11.8123 14.157 11.9684 14.1004 12.12 14.033L11.11 13.0725L12.1801 11.9547L13.1939 12.9089C13.3516 12.5844 13.4623 12.3001 13.5256 12.0568C13.6249 11.6914 13.6741 11.2651 13.6741 10.778C13.6741 9.65945 13.4451 8.79423 12.9873 8.18304C12.5294 7.57185 11.8608 7.2666 10.9811 7.2666Z" fill="#FF6135"/>
<path d="M11 0.6875C5.30475 0.6875 0.6875 5.30475 0.6875 11C0.6875 16.6952 5.30475 21.3125 11 21.3125C16.6952 21.3125 21.3125 16.6952 21.3125 11C21.3125 5.30475 16.6952 0.6875 11 0.6875ZM14.717 16.5L13.5187 15.3632C13.1529 15.5853 12.8373 15.7413 12.5706 15.8317C12.1234 15.9816 11.5885 16.0559 10.9653 16.0559C9.66488 16.0559 8.59066 15.6681 7.74194 14.8919C6.71206 13.9583 6.19712 12.5868 6.19712 10.7779C6.19712 8.95503 6.72478 7.57694 7.78078 6.64331C8.64222 5.88122 9.71369 5.5 10.9945 5.5C12.2849 5.5 13.3677 5.90391 14.2426 6.71138C15.2529 7.645 15.7585 8.95125 15.7585 10.6291C15.7585 11.5177 15.6506 12.2622 15.4337 12.8621C15.2584 13.4341 14.9999 13.9092 14.6582 14.2873L15.8029 15.3656L14.717 16.5Z" fill="#FF6135"/>
</g>
<defs>
<clipPath id="clip0_0_3437">
<rect width="22" height="22" fill="white"/>
</clipPath>
</defs>
</svg>
