<svg width="21" height="22" viewBox="0 0 21 22" fill="none" xmlns="http://www.w3.org/2000/svg">
<path fill-rule="evenodd" clip-rule="evenodd" d="M3.67648 1H17.0589C17.7687 1 18.4495 1.30209 18.9514 1.83982C19.4534 2.37755 19.7354 3.10687 19.7354 3.86733V18.204C19.7354 18.9644 19.4534 19.6937 18.9514 20.2315C18.4495 20.7692 17.7687 21.0713 17.0589 21.0713H3.67648C2.96663 21.0713 2.28586 20.7692 1.78392 20.2315C1.28199 19.6937 1 18.9644 1 18.204V3.86733C1 3.10687 1.28199 2.37755 1.78392 1.83982C2.28586 1.30209 2.96663 1 3.67648 1Z" stroke="#A6A6A6" stroke-linecap="round" stroke-linejoin="round"/>
<path d="M19.7354 15.3365L15.7206 11.0355L11.7059 15.315M17.0589 21.0712L5.01472 8.16821L1 12.4692" stroke="#A6A6A6" stroke-linecap="round" stroke-linejoin="round"/>
<path d="M15.0515 7.45131C15.7906 7.45131 16.3897 6.80944 16.3897 6.01765C16.3897 5.22586 15.7906 4.58398 15.0515 4.58398C14.3124 4.58398 13.7133 5.22586 13.7133 6.01765C13.7133 6.80944 14.3124 7.45131 15.0515 7.45131Z" fill="#A6A6A6"/>
</svg>
