<svg width="55" height="55" viewBox="0 0 55 55" fill="none" xmlns="http://www.w3.org/2000/svg">
<path d="M23.0428 12.8852C18.6966 -1.62792 9.59454 2.75416 18.456 15.0967C4.06063 5.42129 0.0420115 10.4586 12.9528 21.9923C-1.32995 16.4482 -3.5773 26.3027 11.8214 26.958C-4.94414 32.2871 -3.50563 38.5736 13.7821 35.5583C0.318452 43.3755 6.62025 51.2745 16.956 39.5411C10.4495 56.0763 16.2547 58.8766 24.9011 43.3703C22.3927 58.8766 32.4981 58.8766 29.9948 43.3703C38.6412 58.8766 44.4516 56.0814 37.9399 39.5411C48.2756 51.2796 54.5774 43.3755 41.1138 35.5583C58.4066 38.5736 59.84 32.2871 43.0745 26.958C58.4732 26.3027 56.2207 16.4482 41.9431 21.9923C54.859 10.4586 50.8404 5.42129 36.445 15.0967C45.3065 2.75928 36.2044 -1.62792 31.8582 12.8852C30.6705 -4.29505 24.2254 -4.29505 23.0377 12.8852H23.0428Z" fill="#FF9776"/>
</svg>
