<svg width="15" height="18" viewBox="0 0 15 18" fill="none" xmlns="http://www.w3.org/2000/svg">
<path fill-rule="evenodd" clip-rule="evenodd" d="M12.0449 1.66256e-07C11.6127 -0.000144837 11.1857 0.0945627 10.794 0.277442C10.4023 0.460321 10.0555 0.726917 9.77813 1.05842C9.50072 1.38993 9.29943 1.77827 9.18846 2.19604C9.07749 2.61382 9.05955 3.05086 9.13589 3.47633L4.83593 6.4872C4.81443 6.50208 4.79379 6.51816 4.77412 6.53539C4.33788 6.19437 3.8146 5.98281 3.26393 5.92482C2.71327 5.86683 2.1574 5.96475 1.6597 6.20742C1.16199 6.45008 0.7425 6.82772 0.449049 7.29727C0.155597 7.76682 0 8.30938 0 8.86309C0 9.41679 0.155597 9.95936 0.449049 10.4289C0.7425 10.8985 1.16199 11.2761 1.6597 11.5188C2.1574 11.7614 2.71327 11.8593 3.26393 11.8014C3.8146 11.7434 4.33788 11.5318 4.77412 11.1908C4.79376 11.2083 4.8144 11.2247 4.83593 11.2399L9.13589 14.2508C9.00824 14.9623 9.14592 15.696 9.52287 16.3129C9.89981 16.9298 10.4899 17.3871 11.1813 17.5982C11.8727 17.8093 12.6176 17.7595 13.2748 17.4584C13.932 17.1572 14.456 16.6255 14.7476 15.964C15.0391 15.3024 15.078 14.5569 14.8569 13.8686C14.6357 13.1803 14.1699 12.597 13.5475 12.2291C12.9252 11.8612 12.1896 11.7342 11.4799 11.8723C10.7703 12.0103 10.1359 12.4037 9.69679 12.978L5.62502 10.1281C5.80683 9.74444 5.90865 9.31627 5.90865 8.86354C5.90865 8.41082 5.80683 7.98173 5.62502 7.59901L9.6977 4.74813C10.0028 5.14746 10.4047 5.46238 10.8654 5.66311C11.3261 5.86383 11.8303 5.94373 12.3305 5.89525C12.8307 5.84676 13.3103 5.6715 13.7238 5.38603C14.1374 5.10056 14.4713 4.71432 14.694 4.26383C14.9167 3.81334 15.0209 3.3135 14.9965 2.81156C14.9722 2.30962 14.8203 1.82217 14.5551 1.39532C14.2899 0.968466 13.9202 0.616311 13.481 0.372155C13.0417 0.127998 12.5475 -9.10525e-05 12.0449 1.66256e-07ZM10.4541 2.95451C10.4541 2.53258 10.6217 2.12793 10.92 1.82958C11.2184 1.53123 11.623 1.36362 12.0449 1.36362C12.4669 1.36362 12.8715 1.53123 13.1699 1.82958C13.4682 2.12793 13.6358 2.53258 13.6358 2.95451C13.6358 3.37645 13.4682 3.78109 13.1699 4.07944C12.8715 4.37779 12.4669 4.54541 12.0449 4.54541C11.623 4.54541 11.2184 4.37779 10.92 4.07944C10.6217 3.78109 10.4541 3.37645 10.4541 2.95451ZM2.95414 7.27265C2.53221 7.27265 2.12756 7.44026 1.82921 7.73861C1.53086 8.03696 1.36324 8.44161 1.36324 8.86354C1.36324 9.28547 1.53086 9.69012 1.82921 9.98847C2.12756 10.2868 2.53221 10.4544 2.95414 10.4544C3.37607 10.4544 3.78072 10.2868 4.07907 9.98847C4.37742 9.69012 4.54503 9.28547 4.54503 8.86354C4.54503 8.44161 4.37742 8.03696 4.07907 7.73861C3.78072 7.44026 3.37607 7.27265 2.95414 7.27265ZM12.0449 13.1817C11.623 13.1817 11.2184 13.3493 10.92 13.6476C10.6217 13.946 10.4541 14.3506 10.4541 14.7726C10.4541 15.1945 10.6217 15.5992 10.92 15.8975C11.2184 16.1959 11.623 16.3635 12.0449 16.3635C12.4669 16.3635 12.8715 16.1959 13.1699 15.8975C13.4682 15.5992 13.6358 15.1945 13.6358 14.7726C13.6358 14.3506 13.4682 13.946 13.1699 13.6476C12.8715 13.3493 12.4669 13.1817 12.0449 13.1817Z" fill="black"/>
</svg>
