<svg width="222" height="185" viewBox="0 0 222 185" fill="none" xmlns="http://www.w3.org/2000/svg">
<rect x="37.8232" y="96.7549" width="108.998" height="87.6901" fill="#FF6135"/>
<path d="M146.821 96.7552L182.881 65.2031V152.893L146.821 184.445V96.7552Z" fill="#F93D09"/>
<path d="M73.8827 65.2031H182.881L146.821 96.7552H37.8232L73.8827 65.2031Z" fill="#FF8664"/>
<path d="M118.272 81.1841H155.836L143.409 91.838H105.845L118.272 81.1841Z" fill="white"/>
<path d="M65.9218 72.1689H175.096L161.983 83.6424H52.9854L65.9218 72.1689Z" fill="black"/>
<path d="M161.824 76.8588L175.095 72.1689L175.12 99.2136L161.824 113.146V76.8588Z" fill="black"/>
<rect opacity="0.5" x="12.2188" y="127.752" width="9.573" height="17.2805" transform="rotate(45 12.2188 127.752)" fill="#FF6135" fill-opacity="0.5"/>
<rect opacity="0.5" x="215.019" y="127.752" width="9.573" height="17.2805" transform="rotate(45 215.019 127.752)" fill="black"/>
<rect opacity="0.5" x="12.2188" width="9.573" height="17.2805" transform="rotate(45 12.2188 0)" fill="#FF6135" fill-opacity="0.5"/>
<rect opacity="0.5" x="113.479" width="9.573" height="17.2805" transform="rotate(45 113.479 0)" fill="black"/>
<rect opacity="0.5" x="215.019" width="9.573" height="17.2805" transform="rotate(45 215.019 0)" fill="#FF6135" fill-opacity="0.5"/>
<rect opacity="0.5" width="9.573" height="17.2805" transform="matrix(0.707107 -0.707107 -0.707107 -0.707107 25.6592 84.1919)" fill="black"/>
<rect opacity="0.5" width="9.573" height="17.2805" transform="matrix(0.707107 -0.707107 -0.707107 -0.707107 202.513 84.1919)" fill="#FF6135" fill-opacity="0.5"/>
<rect opacity="0.5" width="9.573" height="17.2805" transform="matrix(0.707107 -0.707107 -0.707107 -0.707107 63.1738 43.998)" fill="#FF6135" fill-opacity="0.5"/>
<rect opacity="0.5" width="9.573" height="17.2805" transform="matrix(0.707107 -0.707107 -0.707107 -0.707107 168.571 43.998)" fill="black"/>
</svg>
