<svg width="15" height="14" viewBox="0 0 15 14" fill="none" xmlns="http://www.w3.org/2000/svg">
<path d="M3.80528 3.28638C3.36868 3.28638 3.03671 3.6782 3.10775 4.10877L3.84618 8.57162C3.90258 8.91306 4.19796 9.16322 4.5437 9.16322H12.554C12.8998 9.16322 13.1951 8.91306 13.2515 8.57162L13.99 4.10877C14.0615 3.6782 13.7291 3.28638 13.2925 3.28638H3.80528Z" stroke="black" stroke-miterlimit="10"/>
<path d="M1 1H1.83617C2.24262 1 2.59053 1.2915 2.66157 1.69193L3.33498 5.48439" stroke="black" stroke-miterlimit="10" stroke-linecap="round"/>
<path d="M3.97573 11.4143C3.97573 11.4143 2.66507 10.443 3.9443 9.16333" stroke="black" stroke-miterlimit="10"/>
<path d="M4.96483 13.0383C5.61473 13.0383 6.14158 12.5115 6.14158 11.8616C6.14158 11.2117 5.61473 10.6848 4.96483 10.6848C4.31493 10.6848 3.78809 11.2117 3.78809 11.8616C3.78809 12.5115 4.31493 13.0383 4.96483 13.0383Z" stroke="black" stroke-miterlimit="10"/>
<path d="M12.3447 13.0383C12.9946 13.0383 13.5215 12.5115 13.5215 11.8616C13.5215 11.2117 12.9946 10.6848 12.3447 10.6848C11.6948 10.6848 11.168 11.2117 11.168 11.8616C11.168 12.5115 11.6948 13.0383 12.3447 13.0383Z" stroke="black" stroke-miterlimit="10"/>
<path d="M6.14209 11.4141H11.194" stroke="black" stroke-miterlimit="10"/>
</svg>
