<svg width="15" height="15" viewBox="0 0 15 15" fill="none" xmlns="http://www.w3.org/2000/svg">
<g clip-path="url(#clip0_0_2688)">
<path d="M2.04741e-09 3.28125C2.04741e-09 2.90829 0.148158 2.5506 0.411881 2.28688C0.675604 2.02316 1.03329 1.875 1.40625 1.875H9.84375C10.2167 1.875 10.5744 2.02316 10.8381 2.28688C11.1018 2.5506 11.25 2.90829 11.25 3.28125V4.6875H12.2063C12.4169 4.68769 12.6249 4.73522 12.8148 4.82657C13.0046 4.91793 13.1715 5.05078 13.3031 5.21531L14.6916 6.94969C14.8913 7.19924 15.0001 7.5094 15 7.82906V9.84375C15 10.2167 14.8518 10.5744 14.5881 10.8381C14.3244 11.1018 13.9667 11.25 13.5938 11.25H13.125C13.125 11.7473 12.9275 12.2242 12.5758 12.5758C12.2242 12.9275 11.7473 13.125 11.25 13.125C10.7527 13.125 10.2758 12.9275 9.92418 12.5758C9.57254 12.2242 9.375 11.7473 9.375 11.25H4.6875C4.68804 11.4999 4.63861 11.7474 4.54211 11.978C4.44562 12.2085 4.30401 12.4174 4.12561 12.5925C3.94721 12.7675 3.73561 12.9051 3.50327 12.9972C3.27092 13.0892 3.02252 13.1339 2.77265 13.1286C2.52278 13.1233 2.2765 13.0681 2.04828 12.9662C1.82006 12.8644 1.6145 12.7179 1.4437 12.5355C1.2729 12.353 1.1403 12.1382 1.05369 11.9038C0.96708 11.6694 0.928214 11.42 0.939375 11.1703C0.664733 11.0736 0.426865 10.8941 0.258604 10.6565C0.0903428 10.4189 -1.5705e-05 10.1349 2.04741e-09 9.84375L2.04741e-09 3.28125ZM1.21312 10.2713C1.38263 9.99374 1.62142 9.76512 1.90603 9.60784C2.19064 9.45056 2.51128 9.37005 2.83643 9.37421C3.16158 9.37837 3.48006 9.46706 3.76055 9.63157C4.04104 9.79608 4.27391 10.0307 4.43625 10.3125H9.62625C9.79116 10.0278 10.0278 9.79116 10.3125 9.62625V3.28125C10.3125 3.15693 10.2631 3.0377 10.1752 2.94979C10.0873 2.86189 9.96807 2.8125 9.84375 2.8125H1.40625C1.28193 2.8125 1.1627 2.86189 1.07479 2.94979C0.986886 3.0377 0.9375 3.15693 0.9375 3.28125V9.84375C0.937426 9.93398 0.963394 10.0223 1.01228 10.0981C1.06118 10.174 1.13091 10.2341 1.21312 10.2713ZM11.25 9.375C11.5791 9.37501 11.9024 9.46165 12.1875 9.62621C12.4725 9.79078 12.7092 10.0275 12.8738 10.3125H13.5938C13.7181 10.3125 13.8373 10.2631 13.9252 10.1752C14.0131 10.0873 14.0625 9.96807 14.0625 9.84375V7.82813C14.0623 7.72175 14.0259 7.6186 13.9594 7.53562L12.5719 5.80125C12.528 5.74635 12.4724 5.70201 12.4091 5.6715C12.3458 5.64099 12.2765 5.6251 12.2063 5.625H11.25V9.375ZM2.8125 10.3125C2.56386 10.3125 2.3254 10.4113 2.14959 10.5871C1.97377 10.7629 1.875 11.0014 1.875 11.25C1.875 11.4986 1.97377 11.7371 2.14959 11.9129C2.3254 12.0887 2.56386 12.1875 2.8125 12.1875C3.06114 12.1875 3.2996 12.0887 3.47541 11.9129C3.65123 11.7371 3.75 11.4986 3.75 11.25C3.75 11.0014 3.65123 10.7629 3.47541 10.5871C3.2996 10.4113 3.06114 10.3125 2.8125 10.3125ZM11.25 10.3125C11.0014 10.3125 10.7629 10.4113 10.5871 10.5871C10.4113 10.7629 10.3125 11.0014 10.3125 11.25C10.3125 11.4986 10.4113 11.7371 10.5871 11.9129C10.7629 12.0887 11.0014 12.1875 11.25 12.1875C11.4986 12.1875 11.7371 12.0887 11.9129 11.9129C12.0887 11.7371 12.1875 11.4986 12.1875 11.25C12.1875 11.0014 12.0887 10.7629 11.9129 10.5871C11.7371 10.4113 11.4986 10.3125 11.25 10.3125Z" fill="black"/>
</g>
<defs>
<clipPath id="clip0_0_2688">
<rect width="15" height="15" fill="white"/>
</clipPath>
</defs>
</svg>
