<svg width="13" height="13" viewBox="0 0 13 13" fill="none" xmlns="http://www.w3.org/2000/svg">
<path d="M1.08594 2.16667C1.08594 2.02301 1.14301 1.88523 1.24459 1.78365C1.34617 1.68207 1.48395 1.625 1.6276 1.625H11.3776C11.5213 1.625 11.659 1.68207 11.7606 1.78365C11.8622 1.88523 11.9193 2.02301 11.9193 2.16667V5.14583C11.5601 5.14583 11.2157 5.2885 10.9617 5.54246C10.7078 5.79642 10.5651 6.14085 10.5651 6.5C10.5651 6.85915 10.7078 7.20359 10.9617 7.45754C11.2157 7.7115 11.5601 7.85417 11.9193 7.85417V10.8333C11.9193 10.977 11.8622 11.1148 11.7606 11.2164C11.659 11.3179 11.5213 11.375 11.3776 11.375H1.6276C1.48395 11.375 1.34617 11.3179 1.24459 11.2164C1.14301 11.1148 1.08594 10.977 1.08594 10.8333V2.16667ZM4.38198 10.2917C4.43781 10.133 4.54153 9.9955 4.67882 9.89826C4.81611 9.80102 4.9802 9.74879 5.14844 9.74879C5.31668 9.74879 5.48077 9.80102 5.61806 9.89826C5.75535 9.9955 5.85907 10.133 5.9149 10.2917H10.8359V8.684C10.429 8.48234 10.0866 8.17101 9.84712 7.78513C9.60769 7.39924 9.48082 6.95413 9.48082 6.5C9.48082 6.04587 9.60769 5.60076 9.84712 5.21487C10.0866 4.82899 10.429 4.51766 10.8359 4.316V2.70833H5.9149C5.85907 2.86704 5.75535 3.0045 5.61806 3.10174C5.48077 3.19898 5.31668 3.25121 5.14844 3.25121C4.9802 3.25121 4.81611 3.19898 4.67882 3.10174C4.54153 3.0045 4.43781 2.86704 4.38198 2.70833H2.16927V10.2917H4.38198ZM5.14844 5.95833C4.93295 5.95833 4.72629 5.87273 4.57391 5.72036C4.42154 5.56798 4.33594 5.36132 4.33594 5.14583C4.33594 4.93035 4.42154 4.72368 4.57391 4.57131C4.72629 4.41894 4.93295 4.33333 5.14844 4.33333C5.36393 4.33333 5.57059 4.41894 5.72296 4.57131C5.87533 4.72368 5.96094 4.93035 5.96094 5.14583C5.96094 5.36132 5.87533 5.56798 5.72296 5.72036C5.57059 5.87273 5.36393 5.95833 5.14844 5.95833ZM5.14844 8.66667C4.93295 8.66667 4.72629 8.58106 4.57391 8.42869C4.42154 8.27632 4.33594 8.06966 4.33594 7.85417C4.33594 7.63868 4.42154 7.43202 4.57391 7.27964C4.72629 7.12727 4.93295 7.04167 5.14844 7.04167C5.36393 7.04167 5.57059 7.12727 5.72296 7.27964C5.87533 7.43202 5.96094 7.63868 5.96094 7.85417C5.96094 8.06966 5.87533 8.27632 5.72296 8.42869C5.57059 8.58106 5.36393 8.66667 5.14844 8.66667Z" fill="black"/>
</svg>
